<svg width="28" height="28" viewBox="0 0 28 28" fill="none" xmlns="http://www.w3.org/2000/svg">
<path d="M2.06249 25.9375H3.87657L21.1138 8.70126L19.2987 6.88619L2.06249 24.1234V25.9375ZM25.5258 7.21674L20.7833 2.4742L22.6805 0.618549C23.0651 0.206183 23.553 0 24.1442 0C24.7354 0 25.2233 0.206183 25.6079 0.618549L27.3815 2.39205C27.7938 2.77671 28 3.25769 28 3.83501C28 4.41232 27.7938 4.90716 27.3815 5.31952L25.5258 7.21674ZM24.0413 8.65969L4.74254 28H0V23.299L19.3403 3.95872L24.0413 8.65969ZM20.2063 7.79372L19.2987 6.88619L21.1138 8.70126L20.2063 7.79372Z" fill="#0C2744"/>
</svg>
