<svg width="31" height="30" viewBox="0 0 31 30" fill="none" xmlns="http://www.w3.org/2000/svg">
<path d="M29.1056 30L17.7819 19.0417C16.9208 19.7639 15.9168 20.3264 14.7698 20.7292C13.6228 21.1319 12.4024 21.3333 11.1083 21.3333C8.00368 21.3333 5.37613 20.2917 3.22568 18.2083C1.07523 16.125 0 13.6111 0 10.6667C0 7.72222 1.07639 5.20833 3.22917 3.125C5.38194 1.04167 7.98681 0 11.0438 0C14.1007 0 16.6984 1.04167 18.8368 3.125C20.9752 5.20833 22.0444 7.72431 22.0444 10.6729C22.0444 11.8632 21.8435 13.0139 21.4417 14.125C21.0398 15.2361 20.437 16.2778 19.6333 17.25L31 28.1667L29.1056 30ZM11.0653 18.8333C13.3975 18.8333 15.3798 18.0347 17.0123 16.4375C18.6448 14.8403 19.4611 12.9167 19.4611 10.6667C19.4611 8.41667 18.6448 6.49306 17.0123 4.89583C15.3798 3.29861 13.3975 2.5 11.0653 2.5C8.70919 2.5 6.70651 3.29861 5.05722 4.89583C3.40796 6.49306 2.58333 8.41667 2.58333 10.6667C2.58333 12.9167 3.40796 14.8403 5.05722 16.4375C6.70651 18.0347 8.70919 18.8333 11.0653 18.8333Z" fill="#0C2744"/>
</svg>
