<svg width="27" height="30" viewBox="0 0 27 30" fill="none" xmlns="http://www.w3.org/2000/svg">
<path d="M10.125 16.6667C8.71875 16.6667 7.52344 16.1806 6.53906 15.2083C5.55469 14.2361 5.0625 13.0556 5.0625 11.6667C5.0625 11.0556 5.16094 10.4792 5.35781 9.9375C5.55469 9.39583 5.85 8.90278 6.24375 8.45833C6.13125 8.18056 6.04688 7.88889 5.99062 7.58333C5.93438 7.27778 5.90625 6.97222 5.90625 6.66667C5.90625 5.61111 6.19453 4.67361 6.77109 3.85417C7.34766 3.03472 8.1 2.43056 9.02812 2.04167C9.59062 1.40278 10.2516 0.902778 11.0109 0.541667C11.7703 0.180556 12.6 0 13.5 0C14.4 0 15.2297 0.180556 15.9891 0.541667C16.7484 0.902778 17.4094 1.40278 17.9719 2.04167C18.9 2.43056 19.6523 3.03472 20.2289 3.85417C20.8055 4.67361 21.0938 5.61111 21.0938 6.66667C21.0938 6.97222 21.0656 7.27778 21.0094 7.58333C20.9531 7.88889 20.8687 8.18056 20.7563 8.45833C21.15 8.90278 21.4453 9.39583 21.6422 9.9375C21.8391 10.4792 21.9375 11.0556 21.9375 11.6667C21.9375 13.0556 21.4453 14.2361 20.4609 15.2083C19.4766 16.1806 18.2812 16.6667 16.875 16.6667H10.125ZM10.125 14.1667H16.875C17.5922 14.1667 18.1934 13.9097 18.6785 13.3958C19.1637 12.8819 19.4062 12.3062 19.4062 11.6685C19.4062 11.3895 19.3641 11.1181 19.2797 10.8542C19.1953 10.5903 19.0406 10.3333 18.8156 10.0833C18.5906 9.80556 18.4359 9.53979 18.3516 9.28604C18.2672 9.03232 18.225 8.79381 18.225 8.5705C18.225 8.24572 18.2812 7.92361 18.3938 7.60417C18.5063 7.28472 18.5625 6.97149 18.5625 6.66446C18.5625 6.13815 18.4219 5.67361 18.1406 5.27083C17.8594 4.86806 17.4797 4.55556 17.0016 4.33333C16.8047 4.25 16.6359 4.15278 16.4953 4.04167C16.3547 3.93056 16.2141 3.80556 16.0734 3.66667C15.8829 3.44444 15.5686 3.19444 15.1303 2.91667C14.6921 2.63889 14.1492 2.5 13.5014 2.5C12.8536 2.5 12.3102 2.64646 11.8713 2.93938C11.4323 3.23232 11.1174 3.48864 10.9266 3.70833C10.7859 3.84722 10.6453 3.97917 10.5047 4.10417C10.3641 4.22917 10.1953 4.31944 9.99844 4.375C9.52031 4.56944 9.14062 4.86806 8.85938 5.27083C8.57812 5.67361 8.4375 6.13815 8.4375 6.66446C8.4375 6.97149 8.49375 7.28472 8.60625 7.60417C8.71875 7.92361 8.775 8.24572 8.775 8.5705C8.775 8.79381 8.73281 9.03232 8.64844 9.28604C8.56406 9.53979 8.40938 9.80556 8.18437 10.0833C7.95937 10.3333 7.80469 10.5903 7.72031 10.8542C7.63594 11.1181 7.59375 11.3895 7.59375 11.6685C7.59375 12.3062 7.83633 12.8819 8.32148 13.3958C8.80664 13.9097 9.40781 14.1667 10.125 14.1667ZM0 30V26.0833C0 25.0278 0.267188 24.125 0.801562 23.375C1.33594 22.625 2.025 22.0556 2.86875 21.6667C4.75313 20.8333 6.56016 20.2083 8.28984 19.7917C10.0195 19.375 11.7563 19.1667 13.5 19.1667C15.2438 19.1667 16.9734 19.3819 18.6891 19.8125C20.4047 20.2431 22.2036 20.8638 24.0857 21.6747C24.9661 22.0671 25.6719 22.6361 26.2031 23.3817C26.7344 24.1272 27 25.0278 27 26.0833V30H0ZM2.53125 27.5H24.4688V26.0833C24.4688 25.6389 24.3352 25.2153 24.068 24.8125C23.8008 24.4097 23.4703 24.1111 23.0766 23.9167C21.2766 23.0556 19.6313 22.4653 18.1406 22.1458C16.65 21.8264 15.1031 21.6667 13.5 21.6667C11.8969 21.6667 10.3359 21.8264 8.81719 22.1458C7.29844 22.4653 5.65313 23.0556 3.88125 23.9167C3.4875 24.1111 3.16406 24.4097 2.91094 24.8125C2.65781 25.2153 2.53125 25.6389 2.53125 26.0833V27.5Z" fill="#0C2744"/>
</svg>
