<svg width="104" height="16" viewBox="0 0 104 16" fill="none" xmlns="http://www.w3.org/2000/svg">
<path d="M3.05395 16L4.35309 10.099L0 6.11687L5.74359 5.58895L8 0L10.2564 5.58895L16 6.11687L11.6469 10.099L12.9461 16L8 12.8814L3.05395 16Z" fill="#0C2744"/>
<path d="M47.0539 16L48.3531 10.099L44 6.11687L49.7436 5.58895L52 0L54.2564 5.58895L60 6.11687L55.6469 10.099L56.9461 16L52 12.8814L47.0539 16Z" fill="#0C2744"/>
<path d="M92.7863 13.5049L96 11.4663L99.2137 13.5291L98.3702 9.66724L101.197 7.07657L97.4589 6.74036L96 3.09442L94.5411 6.71675L90.8034 7.05239L93.6298 9.64306L92.7863 13.5049ZM91.0539 16L92.3531 10.099L88 6.11687L93.7436 5.58895L96 0L98.2564 5.58895L104 6.11687L99.6469 10.099L100.946 16L96 12.8814L91.0539 16Z" fill="#0C2744"/>
<path d="M74 11.4663L77.2137 13.5291L76.3702 9.66724L79.1966 7.07657L75.4589 6.74036L74 3.09442V11.4663ZM69.0539 16L70.3531 10.099L66 6.11687L71.7436 5.58895L74 0L76.2564 5.58895L82 6.11687L77.6469 10.099L78.9461 16L74 12.8814L69.0539 16Z" fill="#0C2744"/>
<path d="M25.0539 16L26.3531 10.099L22 6.11687L27.7436 5.58895L30 0L32.2564 5.58895L38 6.11687L33.6469 10.099L34.9461 16L30 12.8814L25.0539 16Z" fill="#0C2744"/>
</svg>
