<svg width="91" height="67" viewBox="0 0 91 67" fill="none" xmlns="http://www.w3.org/2000/svg">
<rect width="91" height="67" fill="#1E1E1E"/>
<rect width="1172" height="2242" transform="translate(-829 -912)" fill="white"/>
<rect x="-20" y="-367" width="331" height="872" rx="8" fill="#E4E4E4"/>
<path d="M-11 -303C-11 -307.418 -7.41828 -311 -3 -311H294C298.418 -311 302 -307.418 302 -303V75C302 79.4183 298.418 83 294 83H-2.99999C-7.41827 83 -11 79.4183 -11 75V-303Z" fill="white"/>
<rect width="91" height="67" fill="#5B5B5B"/>
<path d="M34.625 48.334C33.903 48.334 33.285 48.077 32.771 47.563C32.257 47.049 32 46.431 32 45.709V22.625C32 21.903 32.257 21.285 32.771 20.771C33.285 20.257 33.903 20 34.625 20H57.709C58.431 20 59.049 20.257 59.563 20.771C60.077 21.285 60.334 21.903 60.334 22.625V45.709C60.334 46.431 60.077 47.049 59.563 47.563C59.049 48.077 58.431 48.334 57.709 48.334H34.625ZM34.625 46.25H57.709C57.8477 46.25 57.9727 46.1947 58.084 46.084C58.1947 45.9727 58.25 45.8477 58.25 45.709V22.625C58.25 22.4863 58.1947 22.3613 58.084 22.25C57.9727 22.1393 57.8477 22.084 57.709 22.084H34.625C34.4863 22.084 34.3613 22.1393 34.25 22.25C34.1393 22.3613 34.084 22.4863 34.084 22.625V45.709C34.084 45.8477 34.1393 45.9727 34.25 46.084C34.3613 46.1947 34.4863 46.25 34.625 46.25ZM37.334 42.125H55.167L49.709 34.917L44.792 41.209L41.417 36.834L37.334 42.125ZM34.084 46.25V22.084V46.25Z" fill="white"/>
</svg>
