<svg width="170" height="28" viewBox="0 0 170 28" fill="none" xmlns="http://www.w3.org/2000/svg">
<path d="M5.583 27.792L7.958 17.542L0 10.625L10.5 9.708L14.625 0L18.75 9.708L29.25 10.625L21.292 17.542L23.667 27.792L14.625 22.375L5.583 27.792Z" fill="#101010"/>
<path d="M75.583 27.792L77.958 17.542L70 10.625L80.5 9.708L84.625 0L88.75 9.708L99.25 10.625L91.292 17.542L93.667 27.792L84.625 22.375L75.583 27.792Z" fill="#101010"/>
<path d="M148.75 23.458L154.625 19.917L160.5 23.5L158.958 16.792L164.125 12.292L157.292 11.708L154.625 5.375L151.958 11.667L145.125 12.25L150.292 16.75L148.75 23.458ZM145.583 27.792L147.958 17.542L140 10.625L150.5 9.708L154.625 0L158.75 9.708L169.25 10.625L161.292 17.542L163.667 27.792L154.625 22.375L145.583 27.792Z" fill="#101010"/>
<path d="M119.625 19.917L125.5 23.5L123.958 16.792L129.125 12.292L122.292 11.708L119.625 5.375V19.917ZM110.583 27.792L112.958 17.542L105 10.625L115.5 9.708L119.625 0L123.75 9.708L134.25 10.625L126.292 17.542L128.667 27.792L119.625 22.375L110.583 27.792Z" fill="#101010"/>
<path d="M40.583 27.792L42.958 17.542L35 10.625L45.5 9.708L49.625 0L53.75 9.708L64.25 10.625L56.292 17.542L58.667 27.792L49.625 22.375L40.583 27.792Z" fill="#101010"/>
</svg>
